<svg xmlns="http://www.w3.org/2000/svg" width="1200" height="800" viewBox="0 0 1200 800">
  <rect width="1200" height="800" fill="#eefaf6"/>
  <rect x="74" y="58" width="1052" height="684" rx="34" fill="#ffffff" stroke="#12110f" stroke-width="8"/>
  <rect x="118" y="106" width="344" height="588" rx="38" fill="#12110f"/>
  <rect x="146" y="154" width="288" height="150" rx="24" fill="#94e857"/>
  <rect x="146" y="334" width="288" height="74" rx="18" fill="#fff"/>
  <rect x="146" y="432" width="288" height="74" rx="18" fill="#fff" opacity=".78"/>
  <rect x="146" y="530" width="288" height="74" rx="18" fill="#00a6fb"/>
  <rect x="538" y="146" width="420" height="40" rx="20" fill="#12110f"/>
  <rect x="538" y="224" width="502" height="24" rx="12" fill="#12110f" opacity=".38"/>
  <rect x="538" y="270" width="420" height="24" rx="12" fill="#12110f" opacity=".28"/>
  <rect x="538" y="368" width="180" height="180" rx="26" fill="#ff4d2e"/>
  <rect x="750" y="368" width="180" height="180" rx="26" fill="#94e857"/>
  <rect x="962" y="368" width="80" height="180" rx="26" fill="#00a6fb"/>
  <rect x="538" y="604" width="304" height="64" rx="32" fill="#12110f"/>
</svg>
